<svg xmlns="http://www.w3.org/2000/svg" viewBox="0 0 470 96" width="470" height="96">
  <defs>
    <linearGradient id="shieldEdge" x1="0%" y1="0%" x2="100%" y2="100%">
      <stop offset="0%" stop-color="#E2E8F0"/>
      <stop offset="100%" stop-color="#94A3B8"/>
    </linearGradient>
    <linearGradient id="leftCore" x1="0%" y1="0%" x2="100%" y2="100%">
      <stop offset="0%" stop-color="#0F2E8A"/>
      <stop offset="100%" stop-color="#1D4ED8"/>
    </linearGradient>
    <linearGradient id="rightCore" x1="0%" y1="0%" x2="100%" y2="100%">
      <stop offset="0%" stop-color="#020617"/>
      <stop offset="100%" stop-color="#0F172A"/>
    </linearGradient>
    <linearGradient id="cyanMark" x1="0%" y1="0%" x2="100%" y2="100%">
      <stop offset="0%" stop-color="#7DD3FC"/>
      <stop offset="100%" stop-color="#22D3EE"/>
    </linearGradient>
    <style>
      .brand { font-family: "Inter", "Segoe UI", "Helvetica Neue", Arial, sans-serif; letter-spacing: 0.08em; }
      .tag { font-family: "Inter", "Segoe UI", "Helvetica Neue", Arial, sans-serif; letter-spacing: 0.11em; }
    </style>
  </defs>

  <!-- Shield -->
  <path d="M52 10 L88 20 L88 46 C88 67 73 82 52 90 C31 82 16 67 16 46 L16 20 Z"
        fill="none" stroke="url(#shieldEdge)" stroke-width="4.2" stroke-linejoin="round"/>
  <path d="M52 20 L52 80 C37 72 26 59 26 45 L26 27 Z" fill="url(#leftCore)"/>
  <path d="M52 20 L78 27 L78 45 C78 59 67 72 52 80 Z" fill="url(#rightCore)"/>
  <path d="M32 36 C42 36 49 45 52 55 C55 45 62 36 72 36 C69 49 61 57 52 67 C43 57 35 49 32 36 Z"
        fill="url(#cyanMark)"/>

  <!-- Wordmark -->
  <text x="110" y="56" class="brand" font-size="74" font-weight="800" fill="#F8FAFC">VAREX</text>

  <!-- Tagline -->
  <text x="110" y="83" class="tag" font-size="15" font-weight="600" fill="#CBD5E1">
    VIRTUAL ARCHITECTURE, RESILIENCE &amp; EXECUTION
  </text>
</svg>
